<?xml version="1.0" standalone="no"?>
<!DOCTYPE svg PUBLIC "-//W3C//DTD SVG 20010904//EN"
 "http://www.w3.org/TR/2001/REC-SVG-20010904/DTD/svg10.dtd">
<svg version="1.0" xmlns="http://www.w3.org/2000/svg"
 width="1280.000000pt" height="1126.000000pt" viewBox="0 0 1280.000000 1126.000000"
 preserveAspectRatio="xMidYMid meet">
<metadata>
Created by potrace 1.15, written by Peter Selinger 2001-2017
</metadata>
<g transform="translate(0.000000,1126.000000) scale(0.100000,-0.100000)"
fill="#000000" stroke="none">
<path d="M3914 11241 c-31 -14 -47 -30 -63 -63 l-21 -44 0 -1787 0 -1787
-1072 0 c-606 0 -1090 -4 -1112 -10 -22 -5 -53 -22 -69 -39 -40 -39 -50 -124
-21 -169 11 -16 897 -1055 1970 -2308 1072 -1254 2179 -2546 2458 -2872 279
-326 521 -602 539 -612 39 -24 87 -25 132 -5 22 11 165 174 441 503 225 268
1306 1556 2403 2862 1097 1306 2005 2390 2018 2409 46 68 19 166 -57 203 -32
16 -118 18 -1005 23 -533 3 -1021 8 -1082 11 l-113 6 0 1798 0 1797 -23 34
c-12 19 -38 42 -57 51 -33 17 -179 18 -2630 18 -2511 0 -2596 -1 -2636 -19z"/>
</g>
</svg>
